<svg width="17" height="11" viewBox="0 0 17 11" fill="none" xmlns="http://www.w3.org/2000/svg">
<path d="M16.3473 5.98735H0.918726C0.576388 5.98735 0.298828 5.70979 0.298828 5.36746C0.298828 5.02512 0.576388 4.74756 0.918726 4.74756H16.3473C16.6896 4.74756 16.9672 5.02512 16.9672 5.36746C16.9672 5.70979 16.6896 5.98735 16.3473 5.98735Z" fill="currentColor"/>
<path d="M11.2063 10.1352C11.0252 10.1352 10.8458 10.0564 10.7234 9.90449C10.5084 9.63804 10.5502 9.24776 10.8167 9.03281L15.3607 5.36767L10.8167 1.70252C10.5502 1.48757 10.5085 1.09729 10.7234 0.830839C10.9383 0.564335 11.3286 0.522595 11.595 0.737493L16.7372 4.88513C16.8831 5.0028 16.9679 5.1802 16.9679 5.36761C16.9679 5.55503 16.8831 5.73242 16.7372 5.8501L11.595 9.99774C11.4805 10.0903 11.3429 10.1352 11.2063 10.1352Z" fill="currentColor"/>
</svg>
